# xmcd
# 
# Track frame offsets:
#     150
#     17994
#     32443
#     44114
#     68125
#     89173
#     109032
#     132225
#     151558
#     168069
#     204077
#     222240
#     244852
#     258546
#     274038
#     302573
#     319996
#     333519
# 
# Disc length: 4795
# 
# Revision: 1
# Processed by: cddbd v1.5.2PL0 Copyright (c) Steve Scherf et al.
# Submitted via: fre:ac v1.0.31
# 
DISCID=fc12b912
DTITLE=Ringo Starr - Ringo Starr and His All Starr Band Live 2006
DYEAR=2008
DGENRE=Rock/Pop
TTITLE0=Introduction
TTITLE1=What Goes On
TTITLE2=Honey Don't
TTITLE3=Everybody Wants You
TTITLE4=Free Ride
TTITLE5=A Love Bizarre
TTITLE6=Don't Mean Nothin'
TTITLE7=She's Not There
TTITLE8=Yellow Submarine
TTITLE9=Frankenstein
TTITLE10=Photograph
TTITLE11=Should've Known Better
TTITLE12=The Glamorous Life
TTITLE13=I Wanna Be You Man
TTITLE14=Rock Me Tonight
TTITLE15=Hold Your Head Up
TTITLE16=Act Naturally
TTITLE17=With A Little Help From My Friends
EXTD=
EXTT0=
EXTT1=
EXTT2=
EXTT3=
EXTT4=
EXTT5=
EXTT6=
EXTT7=
EXTT8=
EXTT9=
EXTT10=
EXTT11=
EXTT12=
EXTT13=
EXTT14=
EXTT15=
EXTT16=
EXTT17=
PLAYORDER=
